<?xml version="1.0" standalone="no"?>
<!DOCTYPE svg PUBLIC "-//W3C//DTD SVG 20010904//EN"
 "http://www.w3.org/TR/2001/REC-SVG-20010904/DTD/svg10.dtd">
<svg version="1.0" xmlns="http://www.w3.org/2000/svg"
 width="362.000000pt" height="362.000000pt" viewBox="0 0 362.000000 362.000000"
 preserveAspectRatio="xMidYMid meet">
<metadata>
Created by potrace 1.14, written by Peter Selinger 2001-2017
</metadata>
<g transform="translate(0.000000,362.000000) scale(0.100000,-0.100000)"
fill="#000000" stroke="none">
<path d="M210 1820 l0 -1630 1620 0 1620 0 0 1630 0 1630 -1620 0 -1620 0 0
-1630z m2080 890 l0 -560 -451 0 -450 0 2 291 c1 206 -1 293 -10 302 -8 8 -11
8 -11 -2 0 -8 -11 -11 -32 -9 -33 3 -33 2 -39 -47 -3 -27 -7 -438 -8 -912 l-2
-863 50 0 51 0 1 558 c0 531 2 598 15 611 3 3 196 7 429 8 372 2 426 1 439
-13 14 -14 16 -107 16 -842 -1 -491 -4 -833 -10 -842 -8 -13 -125 -15 -940
-18 l-930 -3 0 1451 0 1450 940 0 940 0 0 -560z m980 303 c0 -142 -4 -264 -8
-271 -7 -10 -98 -12 -441 -10 -371 3 -433 5 -441 18 -15 24 -13 488 3 505 10
12 84 14 450 15 l437 0 0 -257z m0 -1477 c0 -624 -3 -1141 -6 -1149 -5 -13
-60 -16 -415 -17 -327 0 -409 2 -409 12 0 10 -3 10 -9 -1 -5 -8 -16 -11 -25
-8 -15 6 -16 111 -16 1152 l0 1145 440 0 440 0 0 -1134z"/>
</g>
</svg>
